<svg width="50" height="28" viewBox="0 0 50 28" fill="none" xmlns="http://www.w3.org/2000/svg">
<mask id="mask0_501_827" style="mask-type:luminance" maskUnits="userSpaceOnUse" x="0" y="0" width="50" height="28">
<path d="M50 0H0V28H50V0Z" fill="white"/>
</mask>
<g mask="url(#mask0_501_827)">
<path d="M30.8599 0.451538V10.424L20.9289 24.9335L20.9243 24.9382L19.3766 27.1998V17.2227L30.8599 0.451538Z" fill="url(#paint0_linear_501_827)"/>
<path d="M49.7912 0.297852V27.9488H38.3081V17.069L49.7912 0.297852Z" fill="url(#paint1_linear_501_827)"/>
<path d="M31.1728 0L29.6795 1.3402L29.675 1.34486C29.6599 1.35541 29.6461 1.36792 29.6342 1.38208H29.6296L0.939517 27.1577H0.935432C0.921816 27.1712 0.912738 27.1805 0.908199 27.1805V27.1856C0.901777 27.1898 0.895704 27.1944 0.890044 27.1996L0.000427246 28L2.28801 24.6635C2.29709 24.6448 2.3107 24.6309 2.31978 24.6123L19.1726 0H31.1728Z" fill="url(#paint2_linear_501_827)"/>
<path d="M31.1728 0L30.8597 0.451388L19.3764 17.2225L12.0007 28H0L0.935004 27.1577H0.939542L29.6296 1.38208L30.8597 0.279205L31.1728 0Z" fill="url(#paint3_linear_501_827)"/>
<path d="M50.0004 0L49.7916 0.186136L47.9398 1.85255L47.9352 1.8572L47.9171 1.8707C47.9125 1.88047 47.908 1.88047 47.9035 1.88512C47.8989 1.88978 47.8989 1.88977 47.8944 1.88977V1.89443L47.8581 1.92235C47.8422 1.93317 47.8268 1.94564 47.8127 1.95958L38.3085 10.4987L30.8603 17.1904L20.3574 26.6184L20.321 26.6556C20.3085 26.6692 20.2949 26.6817 20.2802 26.6928L19.377 27.5025L18.8278 28.0005L19.377 27.2001L20.9247 24.9385L20.9292 24.9338L30.8603 10.4238L37.9999 0H50.0004Z" fill="url(#paint4_linear_501_827)"/>
<path d="M50.0005 0L49.7917 0.297822L38.3086 17.069L30.8603 27.9488L30.8286 28H18.8274L19.3766 27.5021L20.357 26.6179L30.8599 17.19L38.3081 10.4983L47.8123 1.95911L47.8577 1.92188L47.8622 1.91723L47.894 1.89396V1.88931C47.8985 1.88931 47.8985 1.88466 47.9031 1.88466L49.7912 0.185675L50.0005 0Z" fill="url(#paint5_linear_501_827)"/>
<g style="mix-blend-mode:multiply" opacity="0.24">
<path d="M30.8599 0.451538V9.31643L19.3766 18.186V17.2227L30.8599 0.451538Z" fill="black"/>
</g>
<g style="mix-blend-mode:multiply" opacity="0.24">
<path d="M49.7912 0.297852V9.06034L49.7231 9.11153L38.3081 17.9299V17.069L49.7912 0.297852Z" fill="black"/>
</g>
<g style="mix-blend-mode:overlay">
<path d="M29.6295 1.3822L0.939353 27.1579C0.934814 27.1625 0.934814 27.1579 0.934814 27.1579C1.0619 27.0276 1.46132 26.6367 2.07861 26.0364C2.84567 25.3058 3.92592 24.2401 5.25128 23.0023C6.57662 21.7645 8.11529 20.3033 9.78559 18.7723C11.4559 17.2315 13.2487 15.6126 15.0461 13.9885C15.9448 13.1834 16.848 12.3784 17.7377 11.5868C18.6273 10.7953 19.5078 10.0237 20.3566 9.27452C22.0586 7.7761 23.6745 6.41217 25.0452 5.22134C26.4159 4.0305 27.587 3.08072 28.3949 2.3962L29.6295 1.3822Z" fill="white"/>
</g>
<g style="mix-blend-mode:overlay">
<path d="M46.7048 2.86118C47.2449 2.4191 47.6262 2.10731 47.8123 1.95886L38.3077 10.498L30.8595 17.1897L20.3566 26.6177C20.5063 26.4688 20.8785 26.1058 21.4232 25.5702C22.1585 24.868 23.1933 23.8442 24.4688 22.6529C25.7442 21.4616 27.2148 20.0609 28.8215 18.5858C30.4283 17.1106 32.1485 15.5517 33.8687 13.9928C34.7357 13.2152 35.6026 12.4432 36.4559 11.6847C37.3092 10.9261 38.1579 10.1816 38.9749 9.46495C40.6089 8.02702 42.1658 6.71474 43.482 5.57464C44.7983 4.43452 45.9286 3.51778 46.7048 2.86118Z" fill="white"/>
</g>
<g style="mix-blend-mode:screen" opacity="0.4">
<path d="M47.9031 1.88477C47.9031 1.8893 47.8985 1.8893 47.894 1.89384L47.8577 1.92107C47.869 1.90922 47.8808 1.89857 47.894 1.8893C47.8985 1.8893 47.8985 1.88477 47.9031 1.88477Z" fill="white"/>
</g>
<g style="mix-blend-mode:multiply" opacity="0.25">
<path d="M31.1728 0C31.0684 0.167525 30.964 0.330396 30.8597 0.493269C30.2061 1.52588 29.5434 2.55011 28.8853 3.57853C28.1227 4.76982 27.342 5.9518 26.5614 7.13379C25.0091 9.49715 23.4432 11.8518 21.8637 14.1978L19.4808 17.7112L19.3764 17.8647V17.2225L12.0007 28H0C1.9971 27.9116 3.99873 27.8739 6.00036 27.8092L11.8419 27.7068C12.5953 26.5667 13.3624 25.4355 14.1204 24.3005L16.4987 20.7918L18.8952 17.2872L21.3054 13.7971C22.9167 11.475 24.5461 9.16378 26.1937 6.86342C27.0107 5.71354 27.8277 4.55995 28.6629 3.41984C29.498 2.27974 30.3241 1.13219 31.1728 0Z" fill="black"/>
</g>
<g style="mix-blend-mode:multiply" opacity="0.25">
<path d="M50.0005 0C49.9324 0.111684 49.8643 0.223363 49.7917 0.330393C49.1108 1.41931 48.4073 2.49892 47.7129 3.57853C46.9549 4.76982 46.1697 5.9518 45.3935 7.13379C43.8415 9.49715 42.274 11.8518 40.6915 14.1978L38.3086 17.7112V17.069L30.8603 27.9488L30.8286 28H18.8274C20.829 27.9116 22.8261 27.8739 24.8278 27.8092L30.6738 27.7068C31.4227 26.5667 32.1898 25.4355 32.9478 24.3005L35.3307 20.7918L37.7226 17.2872L40.1328 13.7971C41.7441 11.475 43.3735 9.16378 45.0211 6.86342C45.8379 5.71354 46.6549 4.55995 47.4946 3.41984C48.3252 2.27555 49.1512 1.13219 50.0005 0Z" fill="black"/>
</g>
<g style="mix-blend-mode:multiply" opacity="0.25">
<path d="M49.7912 7.85059V27.949H38.3081C39.2658 27.8885 40.2235 27.8513 41.1812 27.8094C42.1389 27.7675 43.0921 27.7396 44.0498 27.707C45.8515 27.6558 47.6489 27.6279 49.4508 27.6046C49.4372 26.0452 49.4281 24.4868 49.4327 22.9232C49.4372 21.248 49.4463 19.5727 49.4735 17.8975C49.5007 16.2222 49.528 14.5511 49.5824 12.8763C49.6006 12.0387 49.6369 11.2011 49.6732 10.3635C49.6868 9.94465 49.705 9.53096 49.7231 9.11215C49.7413 8.69333 49.764 8.26893 49.7912 7.85059Z" fill="black"/>
</g>
<g style="mix-blend-mode:overlay">
<path d="M46.4602 -1.96386e-05C45.0487 0.0739709 43.6371 0.107006 42.2301 0.162848C40.8639 0.209383 39.5022 0.228 38.1406 0.260574C37.4734 1.27969 36.8107 2.2988 36.1299 3.30395L34.0193 6.44039L31.8906 9.56287L29.7482 12.6761L27.5787 15.7706L25.3864 18.8419C24.6511 19.8657 23.9249 20.8936 23.176 21.9039C22.4271 22.9142 21.6918 23.9328 20.9293 24.9333L30.8603 10.4233L37.9999 -0.000488281L46.4602 -1.96386e-05Z" fill="white"/>
</g>
<g style="mix-blend-mode:overlay">
<path d="M29.2125 0C27.5377 0.0837627 25.8628 0.120988 24.1925 0.186136L19.3269 0.288982C18.6687 1.28901 17.997 2.2802 17.3343 3.28117L15.2419 6.37527L13.1313 9.46099L11.0072 12.5323L8.86481 15.5896L6.69524 18.6279C5.96903 19.6428 5.25189 20.6573 4.50752 21.6578C3.77223 22.6625 3.03694 23.6681 2.28802 24.6639C2.2971 24.6453 2.31072 24.6313 2.3198 24.6127L19.1725 0.000461542L29.2125 0Z" fill="white"/>
</g>
</g>
<defs>
<linearGradient id="paint0_linear_501_827" x1="25.1182" y1="23.348" x2="25.1182" y2="8.583" gradientUnits="userSpaceOnUse">
<stop stop-color="#F58033"/>
<stop offset="1" stop-color="#A53826"/>
</linearGradient>
<linearGradient id="paint1_linear_501_827" x1="44.0498" y1="27.7" x2="44.0498" y2="8.28898" gradientUnits="userSpaceOnUse">
<stop stop-color="#00F3FF"/>
<stop offset="0.238" stop-color="#00EFFC"/>
<stop offset="0.44" stop-color="#00E5F4"/>
<stop offset="0.629" stop-color="#00D3E7"/>
<stop offset="0.81" stop-color="#00BAD4"/>
<stop offset="0.983" stop-color="#009BBC"/>
<stop offset="1" stop-color="#0098BA"/>
</linearGradient>
<linearGradient id="paint2_linear_501_827" x1="12.22" y1="12.348" x2="26.8247" y2="-4.92761" gradientUnits="userSpaceOnUse">
<stop stop-color="#F804DE"/>
<stop offset="0.074" stop-color="#F803CC"/>
<stop offset="0.293" stop-color="#F9029D"/>
<stop offset="0.501" stop-color="#FA0178"/>
<stop offset="0.695" stop-color="#FB005D"/>
<stop offset="0.867" stop-color="#FB004D"/>
<stop offset="1" stop-color="#FC0048"/>
</linearGradient>
<linearGradient id="paint3_linear_501_827" x1="0" y1="14" x2="31.1728" y2="14" gradientUnits="userSpaceOnUse">
<stop stop-color="#F804DE"/>
<stop offset="0.074" stop-color="#F803CC"/>
<stop offset="0.293" stop-color="#F9029D"/>
<stop offset="0.501" stop-color="#FA0178"/>
<stop offset="0.695" stop-color="#FB005D"/>
<stop offset="0.867" stop-color="#FB004D"/>
<stop offset="1" stop-color="#FC0048"/>
</linearGradient>
<linearGradient id="paint4_linear_501_827" x1="34.1648" y1="12.0402" x2="46.8438" y2="-7.18102" gradientUnits="userSpaceOnUse">
<stop stop-color="#FCFC53"/>
<stop offset="1" stop-color="#F8A700"/>
</linearGradient>
<linearGradient id="paint5_linear_501_827" x1="18.8274" y1="14" x2="50.0005" y2="14" gradientUnits="userSpaceOnUse">
<stop stop-color="#FCFC53"/>
<stop offset="1" stop-color="#F8A700"/>
</linearGradient>
</defs>
</svg>
